ISO-10303-21;
HEADER;
/* Generated by software containing ST-Developer
 * from STEP Tools, Inc. (www.steptools.com) 
 */
/* OPTION: using custom renumber hook */

FILE_DESCRIPTION(
/* description */ ('STEP AP242 Edition 2',
'CAx-IF Rec.Pracs.---Representation and Presentation of Product Manufa
cturing Information (PMI)---4.0---2014-10-13',
'CAx-IF Rec.Pracs.---3D Tessellated Geometry---0.4---2014-09-14','2;1',
'CAx-IF Rec.Pracs.---User Defined Attributes---1.5---2016-08-15'),
/* implementation_level */ '2;1');

FILE_NAME(
/* name */ 'MushTogether - KnobCover',
/* time_stamp */ '2026-07-21T22:02:27Z',
/* author */ (''),
/* organization */ (''),
/* preprocessor_version */ 'ST-DEVELOPER v20',
/* originating_system */ 'ONSHAPE BY PTC INC, 1.218',
/* authorisation */ '  ');

FILE_SCHEMA (('AP242_MANAGED_MODEL_BASED_3D_ENGINEERING_MIM_LF { 1 0 10303 442 3 1 4 }'));
ENDSEC;

DATA;
#10=SHAPE_REPRESENTATION_RELATIONSHIP('','',#102,#11);
#11=ADVANCED_BREP_SHAPE_REPRESENTATION('',(#100),#269);
#12=B_SPLINE_SURFACE_WITH_KNOTS('',3,3,((#192,#193,#194,#195,#196,#197,
#198,#199,#200,#201,#202,#203,#204,#205,#206,#207,#208,#209,#210),(#211,
#212,#213,#214,#215,#216,#217,#218,#219,#220,#221,#222,#223,#224,#225,#226,
#227,#228,#229),(#230,#231,#232,#233,#234,#235,#236,#237,#238,#239,#240,
#241,#242,#243,#244,#245,#246,#247,#248),(#249,#250,#251,#252,#253,#254,
#255,#256,#257,#258,#259,#260,#261,#262,#263,#264,#265,#266,#267)),
 .UNSPECIFIED.,.F.,.T.,.F.,(4,4),(1,1,1,1,1,1,1,1,1,1,1,1,1,1,1,1,1,1,1,
1,1,1,1),(1.06358181742104E-6,1.),(-1.17809724509617,-0.785398163397448,
-0.392699081698725,0.,0.392699081698724,0.785398163397448,1.17809724509617,
1.5707963267949,1.96349540849362,2.35619449019234,2.74889357189107,3.14159265358979,
3.53429173528852,3.92699081698724,4.31968989868597,4.71238898038469,5.10508806208341,
5.49778714378214,5.89048622548086,6.28318530717959,6.67588438887831,7.06858347057703,
7.46128255227576),.UNSPECIFIED.);
#13=B_SPLINE_CURVE_WITH_KNOTS('',3,(#152,#153,#154,#155,#156,#157,#158,
#159,#160,#161,#162),.UNSPECIFIED.,.T.,.F.,(1,1,1,1,1,1,1,1,1,1,1,1,1,1,
1),(-0.375,-0.25,-0.125,0.,0.125,0.25,0.375,0.5,0.625,0.75,0.875,1.,1.125,
1.25,1.375),.UNSPECIFIED.);
#14=B_SPLINE_CURVE_WITH_KNOTS('',3,(#165,#166,#167,#168,#169,#170,#171,
#172,#173,#174,#175,#176,#177,#178,#179,#180,#181,#182,#183),
 .UNSPECIFIED.,.T.,.F.,(1,1,1,1,1,1,1,1,1,1,1,1,1,1,1,1,1,1,1,1,1,1,1),
(-0.190789473684211,-0.128289473684211,-0.0657894736842105,0.,0.059375,
0.12171875,0.1842109375,0.246710546875,0.30921052734375,0.371710526367187,
0.434210526318359,0.496710526315918,0.559210526315796,0.62171052631579,
0.684210526315789,0.746710526315789,0.809210526315789,0.871710526315789,
0.934210526315789,1.,1.059375,1.12171875,1.1842109375),.UNSPECIFIED.);
#15=CONICAL_SURFACE('',#109,0.008,0.0872664625997164);
#16=PLANE('',#107);
#17=PLANE('',#110);
#18=PLANE('',#111);
#19=PLANE('',#115);
#20=ORIENTED_EDGE('',*,*,#34,.F.);
#21=ORIENTED_EDGE('',*,*,#35,.T.);
#22=ORIENTED_EDGE('',*,*,#36,.F.);
#23=ORIENTED_EDGE('',*,*,#34,.T.);
#24=ORIENTED_EDGE('',*,*,#37,.T.);
#25=ORIENTED_EDGE('',*,*,#36,.T.);
#26=ORIENTED_EDGE('',*,*,#38,.T.);
#27=ORIENTED_EDGE('',*,*,#39,.F.);
#28=ORIENTED_EDGE('',*,*,#39,.T.);
#29=ORIENTED_EDGE('',*,*,#40,.F.);
#30=ORIENTED_EDGE('',*,*,#35,.F.);
#31=ORIENTED_EDGE('',*,*,#40,.T.);
#32=ORIENTED_EDGE('',*,*,#37,.F.);
#33=ORIENTED_EDGE('',*,*,#38,.F.);
#34=EDGE_CURVE('',#41,#41,#48,.T.);
#35=EDGE_CURVE('',#42,#42,#49,.T.);
#36=EDGE_CURVE('',#43,#43,#50,.T.);
#37=EDGE_CURVE('',#44,#44,#13,.T.);
#38=EDGE_CURVE('',#45,#45,#14,.T.);
#39=EDGE_CURVE('',#46,#46,#51,.T.);
#40=EDGE_CURVE('',#47,#47,#52,.T.);
#41=VERTEX_POINT('',#145);
#42=VERTEX_POINT('',#147);
#43=VERTEX_POINT('',#150);
#44=VERTEX_POINT('',#163);
#45=VERTEX_POINT('',#184);
#46=VERTEX_POINT('',#187);
#47=VERTEX_POINT('',#190);
#48=CIRCLE('',#105,0.0045);
#49=CIRCLE('',#106,0.0045);
#50=CIRCLE('',#108,0.008);
#51=CIRCLE('',#112,0.0032);
#52=CIRCLE('',#114,0.0032);
#53=EDGE_LOOP('',(#20));
#54=EDGE_LOOP('',(#21));
#55=EDGE_LOOP('',(#22));
#56=EDGE_LOOP('',(#23));
#57=EDGE_LOOP('',(#24));
#58=EDGE_LOOP('',(#25));
#59=EDGE_LOOP('',(#26));
#60=EDGE_LOOP('',(#27));
#61=EDGE_LOOP('',(#28));
#62=EDGE_LOOP('',(#29));
#63=EDGE_LOOP('',(#30));
#64=EDGE_LOOP('',(#31));
#65=EDGE_LOOP('',(#32));
#66=EDGE_LOOP('',(#33));
#67=FACE_BOUND('',#53,.T.);
#68=FACE_BOUND('',#54,.T.);
#69=FACE_BOUND('',#55,.T.);
#70=FACE_BOUND('',#56,.T.);
#71=FACE_BOUND('',#57,.T.);
#72=FACE_BOUND('',#58,.T.);
#73=FACE_BOUND('',#59,.T.);
#74=FACE_BOUND('',#60,.T.);
#75=FACE_BOUND('',#61,.T.);
#76=FACE_BOUND('',#62,.T.);
#77=FACE_BOUND('',#63,.T.);
#78=FACE_BOUND('',#64,.T.);
#79=FACE_BOUND('',#65,.T.);
#80=FACE_BOUND('',#66,.T.);
#81=CYLINDRICAL_SURFACE('',#104,0.0045);
#82=CYLINDRICAL_SURFACE('',#113,0.0032);
#83=ADVANCED_FACE('',(#67,#68),#81,.F.);
#84=ADVANCED_FACE('',(#69,#70),#16,.F.);
#85=ADVANCED_FACE('',(#71,#72),#15,.T.);
#86=ADVANCED_FACE('',(#73),#17,.F.);
#87=ADVANCED_FACE('',(#74),#18,.T.);
#88=ADVANCED_FACE('',(#75,#76),#82,.F.);
#89=ADVANCED_FACE('',(#77,#78),#19,.F.);
#90=ADVANCED_FACE('',(#79,#80),#12,.F.);
#91=CLOSED_SHELL('',(#83,#84,#85,#86,#87,#88,#89,#90));
#92=STYLED_ITEM('',(#93),#100);
#93=PRESENTATION_STYLE_ASSIGNMENT((#94));
#94=SURFACE_STYLE_USAGE(.BOTH.,#95);
#95=SURFACE_SIDE_STYLE('',(#96));
#96=SURFACE_STYLE_FILL_AREA(#97);
#97=FILL_AREA_STYLE('',(#98));
#98=FILL_AREA_STYLE_COLOUR('',#99);
#99=COLOUR_RGB('',0.949019607843137,0.274509803921568,0.274509803921568);
#100=MANIFOLD_SOLID_BREP('KnobCover',#91);
#101=SHAPE_DEFINITION_REPRESENTATION(#274,#102);
#102=SHAPE_REPRESENTATION('KnobCover',(#103),#269);
#103=AXIS2_PLACEMENT_3D('',#142,#116,#117);
#104=AXIS2_PLACEMENT_3D('',#143,#118,#119);
#105=AXIS2_PLACEMENT_3D('',#144,#120,#121);
#106=AXIS2_PLACEMENT_3D('',#146,#122,#123);
#107=AXIS2_PLACEMENT_3D('',#148,#124,#125);
#108=AXIS2_PLACEMENT_3D('',#149,#126,#127);
#109=AXIS2_PLACEMENT_3D('',#151,#128,#129);
#110=AXIS2_PLACEMENT_3D('',#164,#130,#131);
#111=AXIS2_PLACEMENT_3D('',#185,#132,#133);
#112=AXIS2_PLACEMENT_3D('',#186,#134,#135);
#113=AXIS2_PLACEMENT_3D('',#188,#136,#137);
#114=AXIS2_PLACEMENT_3D('',#189,#138,#139);
#115=AXIS2_PLACEMENT_3D('',#191,#140,#141);
#116=DIRECTION('',(0.,0.,1.));
#117=DIRECTION('',(1.,0.,0.));
#118=DIRECTION('',(-2.77555756156289E-16,0.,1.));
#119=DIRECTION('',(1.,0.,2.77555756156289E-16));
#120=DIRECTION('',(-2.77555756156289E-16,0.,1.));
#121=DIRECTION('',(1.,0.,2.77555756156289E-16));
#122=DIRECTION('',(-2.77555756156289E-16,0.,1.));
#123=DIRECTION('',(1.,0.,2.77555756156289E-16));
#124=DIRECTION('',(-2.77555756156289E-16,0.,1.));
#125=DIRECTION('',(1.,0.,2.77555756156289E-16));
#126=DIRECTION('',(-2.77555756156289E-16,0.,1.));
#127=DIRECTION('',(1.,0.,2.77555756156289E-16));
#128=DIRECTION('',(2.77555756156289E-16,0.,-1.));
#129=DIRECTION('',(-1.,0.,-2.77555756156289E-16));
#130=DIRECTION('',(2.77555756156289E-16,0.,-1.));
#131=DIRECTION('',(-1.,0.,-2.77555756156289E-16));
#132=DIRECTION('',(2.77555756156289E-16,0.,-1.));
#133=DIRECTION('',(-1.,0.,-2.77555756156289E-16));
#134=DIRECTION('',(-2.77555756156289E-16,0.,1.));
#135=DIRECTION('',(1.,0.,2.77555756156289E-16));
#136=DIRECTION('',(-2.77555756156289E-16,0.,1.));
#137=DIRECTION('',(1.,0.,2.77555756156289E-16));
#138=DIRECTION('',(-2.77555756156289E-16,0.,1.));
#139=DIRECTION('',(1.,0.,2.77555756156289E-16));
#140=DIRECTION('',(-2.77555756156289E-16,0.,1.));
#141=DIRECTION('',(1.,0.,2.77555756156289E-16));
#142=CARTESIAN_POINT('',(0.,0.,0.));
#143=CARTESIAN_POINT('',(0.0194,0.00325,0.02366));
#144=CARTESIAN_POINT('',(0.0194,0.00325,0.01741));
#145=CARTESIAN_POINT('',(0.0239,0.00325,0.01741));
#146=CARTESIAN_POINT('',(0.0194,0.00325,0.02361));
#147=CARTESIAN_POINT('',(0.0239,0.00325,0.02361));
#148=CARTESIAN_POINT('',(0.02565,0.00325,0.01741));
#149=CARTESIAN_POINT('',(0.0194,0.00325,0.01741));
#150=CARTESIAN_POINT('',(0.0274,0.00325,0.01741));
#151=CARTESIAN_POINT('',(0.0194,0.00325,0.01741));
#152=CARTESIAN_POINT('',(0.0247597248161763,0.00860972481617628,0.030671467228243));
#153=CARTESIAN_POINT('',(0.0269797955256241,0.00324999999999998,0.030671467228243));
#154=CARTESIAN_POINT('',(0.0247597248161763,-0.00210972481617629,0.030671467228243));
#155=CARTESIAN_POINT('',(0.0194,-0.00432979552562414,0.030671467228243));
#156=CARTESIAN_POINT('',(0.0140402751838237,-0.00210972481617628,0.030671467228243));
#157=CARTESIAN_POINT('',(0.0118202044743759,0.00325000000000001,0.030671467228243));
#158=CARTESIAN_POINT('',(0.0140402751838237,0.00860972481617628,0.030671467228243));
#159=CARTESIAN_POINT('',(0.0194,0.0108297955256241,0.030671467228243));
#160=CARTESIAN_POINT('',(0.0247597248161763,0.00860972481617628,0.030671467228243));
#161=CARTESIAN_POINT('',(0.0269797955256241,0.00324999999999998,0.030671467228243));
#162=CARTESIAN_POINT('',(0.0247597248161763,-0.00210972481617629,0.030671467228243));
#163=CARTESIAN_POINT('',(0.0262397719558082,0.00325,0.0306714672282429));
#164=CARTESIAN_POINT('',(0.0227000906917926,0.00325,0.03341));
#165=CARTESIAN_POINT('',(0.0230338609794203,0.00168354888818895,0.03341));
#166=CARTESIAN_POINT('',(0.0233514477498305,0.00319886880457814,0.03341));
#167=CARTESIAN_POINT('',(0.0230662632946075,0.00470933060998493,0.03341));
#168=CARTESIAN_POINT('',(0.0222508107386841,0.00598597705726785,0.03341));
#169=CARTESIAN_POINT('',(0.0209881064462333,0.00686824408497634,0.03341));
#170=CARTESIAN_POINT('',(0.0194826455033092,0.00720060751185286,0.03341));
#171=CARTESIAN_POINT('',(0.017964524864767,0.00693150552294726,0.03341));
#172=CARTESIAN_POINT('',(0.0166649429525198,0.00610193753742274,0.03341));
#173=CARTESIAN_POINT('',(0.0157817475019291,0.00483818506590315,0.03341));
#174=CARTESIAN_POINT('',(0.0154493984518893,0.00333264661172497,0.03341));
#175=CARTESIAN_POINT('',(0.0157184926648411,0.00181452551439746,0.03341));
#176=CARTESIAN_POINT('',(0.0165480627756145,0.000514943372948321,0.03341));
#177=CARTESIAN_POINT('',(0.0178118153702875,-0.000368254657359683,0.03341));
#178=CARTESIAN_POINT('',(0.0193173513214643,-0.000700593325809743,0.03341));
#179=CARTESIAN_POINT('',(0.020835482316137,-0.000431538064989013,0.03341));
#180=CARTESIAN_POINT('',(0.0221350273716936,0.000398177472628118,0.03341));
#181=CARTESIAN_POINT('',(0.0230338609794203,0.00168354888818895,0.03341));
#182=CARTESIAN_POINT('',(0.0233514477498305,0.00319886880457814,0.03341));
#183=CARTESIAN_POINT('',(0.0230662632946075,0.00470933060998493,0.03341));
#184=CARTESIAN_POINT('',(0.0232511878615329,0.00325,0.03341));
#185=CARTESIAN_POINT('',(0.021,0.00325,0.03011));
#186=CARTESIAN_POINT('',(0.0194,0.00325,0.03011));
#187=CARTESIAN_POINT('',(0.0226,0.00325,0.03011));
#188=CARTESIAN_POINT('',(0.0194,0.00325,0.02366));
#189=CARTESIAN_POINT('',(0.0194,0.00325,0.02361));
#190=CARTESIAN_POINT('',(0.0226,0.00325,0.02361));
#191=CARTESIAN_POINT('',(0.02325,0.00325,0.02361));
#192=CARTESIAN_POINT('',(0.012916364398538,0.00593562369489548,0.0306714730535472));
#193=CARTESIAN_POINT('',(0.0123821606314955,0.00325000000000001,0.0306714730535472));
#194=CARTESIAN_POINT('',(0.0129163643985381,0.000564376305104534,0.0306714730535472));
#195=CARTESIAN_POINT('',(0.0144376480187028,-0.0017123855274825,0.0306714730535472));
#196=CARTESIAN_POINT('',(0.0167144098512898,-0.00323366914764715,0.0306714730535472));
#197=CARTESIAN_POINT('',(0.0194000335461853,-0.00376787291468968,0.0306714730535472));
#198=CARTESIAN_POINT('',(0.0220856572410808,-0.00323366914764709,0.0306714730535472));
#199=CARTESIAN_POINT('',(0.0243624190736679,-0.00171238552748239,0.0306714730535472));
#200=CARTESIAN_POINT('',(0.0258837026938325,0.000564376305104681,0.0306714730535472));
#201=CARTESIAN_POINT('',(0.026417906460875,0.00325000000000016,0.0306714730535472));
#202=CARTESIAN_POINT('',(0.0258837026938324,0.00593562369489563,0.0306714730535472));
#203=CARTESIAN_POINT('',(0.0243624190736677,0.00821238552748267,0.0306714730535472));
#204=CARTESIAN_POINT('',(0.0220856572410807,0.00973366914764731,0.0306714730535472));
#205=CARTESIAN_POINT('',(0.0194000335461852,0.0102678729146899,0.0306714730535472));
#206=CARTESIAN_POINT('',(0.0167144098512897,0.00973366914764726,0.0306714730535472));
#207=CARTESIAN_POINT('',(0.0144376480187027,0.00821238552748256,0.0306714730535472));
#208=CARTESIAN_POINT('',(0.012916364398538,0.00593562369489548,0.0306714730535472));
#209=CARTESIAN_POINT('',(0.0123821606314955,0.00325000000000001,0.0306714730535472));
#210=CARTESIAN_POINT('',(0.0129163643985381,0.000564376305104534,0.0306714730535472));
#211=CARTESIAN_POINT('',(0.0130677762838513,0.00587290683849424,0.0324971576845157));
#212=CARTESIAN_POINT('',(0.0125460476751901,0.00325000000000001,0.0324971576845157));
#213=CARTESIAN_POINT('',(0.0130677762838514,0.000627093161505772,0.0324971576845157));
#214=CARTESIAN_POINT('',(0.0145535336586479,-0.0015964998875374,0.0324971576845157));
#215=CARTESIAN_POINT('',(0.0167771267076911,-0.00308225726233388,0.0324971576845157));
#216=CARTESIAN_POINT('',(0.0194000335461853,-0.00360398587099503,0.0324971576845157));
#217=CARTESIAN_POINT('',(0.0220229403846796,-0.00308225726233382,0.0324971576845157));
#218=CARTESIAN_POINT('',(0.0242465334337228,-0.00159649988753729,0.0324971576845157));
#219=CARTESIAN_POINT('',(0.0257322908085192,0.000627093161505918,0.0324971576845157));
#220=CARTESIAN_POINT('',(0.0262540194171804,0.00325000000000017,0.0324971576845157));
#221=CARTESIAN_POINT('',(0.0257322908085192,0.0058729068384944,0.0324971576845157));
#222=CARTESIAN_POINT('',(0.0242465334337226,0.00809649988753758,0.0324971576845157));
#223=CARTESIAN_POINT('',(0.0220229403846794,0.00958225726233405,0.0324971576845157));
#224=CARTESIAN_POINT('',(0.0194000335461852,0.0101039858709952,0.0324971576845157));
#225=CARTESIAN_POINT('',(0.0167771267076909,0.00958225726233399,0.0324971576845157));
#226=CARTESIAN_POINT('',(0.0145535336586478,0.00809649988753747,0.0324971576845157));
#227=CARTESIAN_POINT('',(0.0130677762838513,0.00587290683849424,0.0324971576845157));
#228=CARTESIAN_POINT('',(0.0125460476751901,0.00325000000000001,0.0324971576845157));
#229=CARTESIAN_POINT('',(0.0130677762838514,0.000627093161505772,0.0324971576845157));
#230=CARTESIAN_POINT('',(0.0140121008274353,0.00548175480525996,0.03341));
#231=CARTESIAN_POINT('',(0.0135681771957102,0.00325000000000001,0.03341));
#232=CARTESIAN_POINT('',(0.0140121008274354,0.00101824519474005,0.03341));
#233=CARTESIAN_POINT('',(0.0152762883738585,-0.000873745172326741,0.03341));
#234=CARTESIAN_POINT('',(0.0171682787409254,-0.00213793271874985,0.03341));
#235=CARTESIAN_POINT('',(0.0194000335461853,-0.00258185635047501,0.03341));
#236=CARTESIAN_POINT('',(0.0216317883514453,-0.00213793271874979,0.03341));
#237=CARTESIAN_POINT('',(0.0235237787185121,-0.000873745172326627,0.03341));
#238=CARTESIAN_POINT('',(0.0247879662649352,0.0010182451947402,0.03341));
#239=CARTESIAN_POINT('',(0.0252318898966603,0.00325000000000016,0.03341));
#240=CARTESIAN_POINT('',(0.0247879662649351,0.00548175480526011,0.03341));
#241=CARTESIAN_POINT('',(0.023523778718512,0.00737374517232691,0.03341));
#242=CARTESIAN_POINT('',(0.0216317883514451,0.00863793271875003,0.03341));
#243=CARTESIAN_POINT('',(0.0194000335461852,0.00908185635047518,0.03341));
#244=CARTESIAN_POINT('',(0.0171682787409252,0.00863793271874996,0.03341));
#245=CARTESIAN_POINT('',(0.0152762883738584,0.00737374517232679,0.03341));
#246=CARTESIAN_POINT('',(0.0140121008274353,0.00548175480525996,0.03341));
#247=CARTESIAN_POINT('',(0.0135681771957102,0.00325000000000001,0.03341));
#248=CARTESIAN_POINT('',(0.0140121008274354,0.00101824519474005,0.03341));
#249=CARTESIAN_POINT('',(0.0157493380292901,0.00476216759519264,0.03341));
#250=CARTESIAN_POINT('',(0.0154485491930555,0.00325000000000001,0.03341));
#251=CARTESIAN_POINT('',(0.0157493380292901,0.00173783240480738,0.03341));
#252=CARTESIAN_POINT('',(0.0166059121643347,0.000455878618149461,0.03341));
#253=CARTESIAN_POINT('',(0.0178878659509927,-0.000400695516895101,0.03341));
#254=CARTESIAN_POINT('',(0.0194000335461853,-0.000701484353129641,0.03341));
#255=CARTESIAN_POINT('',(0.020912201141378,-0.000400695516895039,0.03341));
#256=CARTESIAN_POINT('',(0.0221941549280359,0.000455878618149575,0.03341));
#257=CARTESIAN_POINT('',(0.0230507290630804,0.00173783240480753,0.03341));
#258=CARTESIAN_POINT('',(0.023351517899315,0.00325000000000017,0.03341));
#259=CARTESIAN_POINT('',(0.0230507290630804,0.00476216759519279,0.03341));
#260=CARTESIAN_POINT('',(0.0221941549280358,0.00604412138185071,0.03341));
#261=CARTESIAN_POINT('',(0.0209122011413778,0.00690069551689527,0.03341));
#262=CARTESIAN_POINT('',(0.0194000335461852,0.00720148435312981,0.03341));
#263=CARTESIAN_POINT('',(0.0178878659509926,0.00690069551689521,0.03341));
#264=CARTESIAN_POINT('',(0.0166059121643346,0.00604412138185059,0.03341));
#265=CARTESIAN_POINT('',(0.0157493380292901,0.00476216759519264,0.03341));
#266=CARTESIAN_POINT('',(0.0154485491930555,0.00325000000000001,0.03341));
#267=CARTESIAN_POINT('',(0.0157493380292901,0.00173783240480738,0.03341));
#268=MECHANICAL_DESIGN_GEOMETRIC_PRESENTATION_REPRESENTATION('',(#92),#269);
#269=(
GEOMETRIC_REPRESENTATION_CONTEXT(3)
GLOBAL_UNCERTAINTY_ASSIGNED_CONTEXT((#270))
GLOBAL_UNIT_ASSIGNED_CONTEXT((#273,#272,#271))
REPRESENTATION_CONTEXT('KnobCover','TOP_LEVEL_ASSEMBLY_PART')
);
#270=UNCERTAINTY_MEASURE_WITH_UNIT(LENGTH_MEASURE(2.E-5),#273,
'DISTANCE_ACCURACY_VALUE','Maximum Tolerance applied to model');
#271=(
NAMED_UNIT(*)
SI_UNIT($,.STERADIAN.)
SOLID_ANGLE_UNIT()
);
#272=(
NAMED_UNIT(*)
PLANE_ANGLE_UNIT()
SI_UNIT($,.RADIAN.)
);
#273=(
LENGTH_UNIT()
NAMED_UNIT(*)
SI_UNIT($,.METRE.)
);
#274=PRODUCT_DEFINITION_SHAPE('','',#275);
#275=PRODUCT_DEFINITION('','',#277,#276);
#276=PRODUCT_DEFINITION_CONTEXT('',#283,'design');
#277=PRODUCT_DEFINITION_FORMATION_WITH_SPECIFIED_SOURCE('','',#279,
 .NOT_KNOWN.);
#278=PRODUCT_RELATED_PRODUCT_CATEGORY('','',(#279));
#279=PRODUCT('KnobCover','KnobCover','KnobCover',(#281));
#280=PRODUCT_CATEGORY('','');
#281=PRODUCT_CONTEXT('',#283,'mechanical');
#282=APPLICATION_PROTOCOL_DEFINITION('international standard',
'ap242_managed_model_based_3d_engineering',2020,#283);
#283=APPLICATION_CONTEXT('managed model based 3d engineering');
ENDSEC;
END-ISO-10303-21;
